<svg xmlns="http://www.w3.org/2000/svg" xmlns:xlink="http://www.w3.org/1999/xlink" version="1.1" x="0px" y="0px" viewBox="0 0 100 125" style="enable-background:new 0 0 100 100;" xml:space="preserve"><path d="M86.7421875,23.3994141c-0.0097656-0.3359375-0.0166016-0.5693359-0.0136719-0.6894531  c0.0107422-0.4414062-0.2695312-0.8378906-0.6884766-0.9746094L50.3378906,10.0498047  c-0.2021484-0.0664062-0.4199219-0.0673828-0.6220703,0L13.9609375,21.7353516  c-0.4199219,0.1367188-0.7001953,0.5332031-0.6894531,0.9755859c0.0029297,0.1201172-0.0039062,0.3535156-0.0136719,0.6914062  c-0.3994141,14.5097656,2.3378906,50.0380859,36.3056641,66.5214844C49.7011719,89.9912109,49.8505859,90.0244141,50,90.0244141  s0.2988281-0.0332031,0.4365234-0.1005859C84.4091797,73.4375,87.1435547,37.9091797,86.7421875,23.3994141z M50,65.1308594  c-10.6240234,0-19.2666016-8.6425781-19.2666016-19.2666016S39.3759766,26.5976562,50,26.5976562  s19.2666016,8.6425781,19.2666016,19.2666016S60.6240234,65.1308594,50,65.1308594z M15.2578125,23.4570312  c0-0.0136719,0-0.0283203,0.0009766-0.0419922l33.7675781-11.036438v12.2683716  c-11.2731934,0.5140991-20.2929688,9.8193359-20.2929688,21.2172852s9.0197754,20.703186,20.2929688,21.2172852v20.3170166  C17.4605103,71.1279297,14.8740845,37.3721313,15.2578125,23.4570312z M51.0263672,87.3707886V67.0788574  c11.2485352-0.5408325,20.2402344-9.8344727,20.2402344-21.2145996s-8.9916992-20.6737671-20.2402344-21.2145996V12.3790894  l33.7148438,11.0359497c0.0009766,0.0126953,0.0009766,0.0263672,0.0009766,0.0400391  C85.1276855,37.3613892,82.5466309,71.086853,51.0263672,87.3707886z"/><path d="M50.1132812,44.4853516h-0.2265625c-2.5253906,0-4.5791016-2.0449219-4.5791016-4.5595703  c0-2.5136719,2.0537109-4.5585938,4.5791016-4.5585938s4.5791016,2.0449219,4.5791016,4.5585938c0,0.5527344,0.4472656,1,1,1  s1-0.4472656,1-1c0-3.2764893-2.425354-5.9918213-5.5791016-6.4746094v-1.5019531c0-0.5527344-0.4472656-1-1-1s-1,0.4472656-1,1  v1.5019531c-3.1537476,0.4827881-5.5791016,3.1981201-5.5791016,6.4746094c0,3.6171875,2.9511719,6.5595703,6.5791016,6.5595703  h0.2265625c2.5253906,0,4.5791016,2.0449219,4.5791016,4.5585938s-2.0537109,4.5595703-4.5791016,4.5595703  s-4.5791016-2.0458984-4.5791016-4.5595703c0-0.5527344-0.4472656-1-1-1s-1,0.4472656-1,1  c0,3.1989136,2.3094482,5.8659668,5.3525391,6.440979v1.5365601c0,0.5527344,0.4472656,1,1,1s1-0.4472656,1-1v-1.4674072  c3.2641602-0.3834229,5.8056641-3.1542358,5.8056641-6.5101318C56.6923828,47.4277344,53.7412109,44.4853516,50.1132812,44.4853516z  "/><text x="0" y="115" fill="#000000" font-size="5px" font-weight="bold" font-family="'Helvetica Neue', Helvetica, Arial-Unicode, Arial, Sans-serif">Created by Made by Made</text><text x="0" y="120" fill="#000000" font-size="5px" font-weight="bold" font-family="'Helvetica Neue', Helvetica, Arial-Unicode, Arial, Sans-serif">from the Noun Project</text></svg>